<?xml version="1.0" encoding="UTF-8" standalone="no"?><svg xmlns="http://www.w3.org/2000/svg" xmlns:xlink="http://www.w3.org/1999/xlink" contentScriptType="application/ecmascript" contentStyleType="text/css" height="849px" preserveAspectRatio="none" style="width:1444px;height:849px;background:#FFFFFF;" version="1.1" viewBox="0 0 1444 849" width="1444px" zoomAndPan="magnify"><defs><filter height="300%" id="fcao8lirwyhz4" width="300%" x="-1" y="-1"><feGaussianBlur result="blurOut" stdDeviation="2.0"/><feColorMatrix in="blurOut" result="blurOut2" type="matrix" values="0 0 0 0 0 0 0 0 0 0 0 0 0 0 0 0 0 0 .4 0"/><feOffset dx="4.0" dy="4.0" in="blurOut2" result="blurOut3"/><feBlend in="SourceGraphic" in2="blurOut3" mode="normal"/></filter></defs><g><text fill="#000000" font-family="sans-serif" font-size="18" lengthAdjust="spacing" textLength="209" x="611" y="16.708">Diagramme de classes</text><!--MD5=[7e40339c58605559321960399585b560]
cluster Utils--><polygon fill="#FFFFFF" filter="url(#fcao8lirwyhz4)" points="290.5,477.9531,334.5,477.9531,341.5,500.25,826.5,500.25,826.5,627.9531,290.5,627.9531,290.5,477.9531" style="stroke:#000000;stroke-width:1.5;"/><line style="stroke:#000000;stroke-width:1.5;" x1="290.5" x2="341.5" y1="500.25" y2="500.25"/><text fill="#000000" font-family="sans-serif" font-size="14" font-weight="bold" lengthAdjust="spacing" textLength="38" x="294.5" y="492.9482">Utils</text><!--MD5=[840e61a8de1edd5c7a7c4404797c4ad2]
class InputHandler--><rect codeLine="59" fill="#FEFECE" filter="url(#fcao8lirwyhz4)" height="99.2188" id="InputHandler" style="stroke:#A80036;stroke-width:1.5;" width="345" x="307" y="512.9531"/><ellipse cx="437.25" cy="528.9531" fill="#ADD1B2" rx="11" ry="11" style="stroke:#A80036;stroke-width:1.0;"/><path d="M439.5938,524.625 C438.6563,524.1875 438.0625,524.0469 437.1875,524.0469 C434.5625,524.0469 432.5625,526.125 432.5625,528.8438 L432.5625,529.9688 C432.5625,532.5469 434.6719,534.4375 437.5625,534.4375 C438.7813,534.4375 439.9375,534.1406 440.6875,533.5938 C441.2656,533.1875 441.5938,532.7344 441.5938,532.3438 C441.5938,531.8906 441.2031,531.5 440.7344,531.5 C440.5156,531.5 440.3125,531.5781 440.125,531.7656 C439.6719,532.25 439.6719,532.25 439.4844,532.3438 C439.0625,532.6094 438.375,532.7344 437.6094,532.7344 C435.5625,532.7344 434.2656,531.6406 434.2656,529.9375 L434.2656,528.8438 C434.2656,527.0625 435.5156,525.75 437.25,525.75 C437.8281,525.75 438.4375,525.9063 438.9063,526.1563 C439.3906,526.4375 439.5625,526.6563 439.6563,527.0625 C439.7188,527.4688 439.75,527.5938 439.8906,527.7188 C440.0313,527.8594 440.2656,527.9688 440.4844,527.9688 C440.75,527.9688 441.0156,527.8281 441.1875,527.6094 C441.2969,527.4531 441.3281,527.2656 441.3281,526.8438 L441.3281,525.4219 C441.3281,524.9844 441.3125,524.8594 441.2188,524.7031 C441.0625,524.4375 440.7813,524.2969 440.4844,524.2969 C440.1875,524.2969 439.9844,524.3906 439.7656,524.7031 L439.5938,524.625 Z " fill="#000000"/><text fill="#000000" font-family="sans-serif" font-size="12" lengthAdjust="spacing" textLength="76" x="457.75" y="533.1074">InputHandler</text><line style="stroke:#A80036;stroke-width:1.5;" x1="308" x2="651" y1="544.9531" y2="544.9531"/><line style="stroke:#A80036;stroke-width:1.5;" x1="308" x2="651" y1="552.9531" y2="552.9531"/><ellipse cx="318" cy="563.9531" fill="#84BE84" rx="3" ry="3" style="stroke:#038048;stroke-width:1.0;"/><text fill="#000000" font-family="sans-serif" font-size="11" lengthAdjust="spacing" textLength="319" x="327" y="567.1636">int getNumberPlayer() throws NumberOfPlayerException</text><rect fill="#F24D5C" height="6" style="stroke:#C82930;stroke-width:1.0;" width="6" x="315" y="573.7578"/><text fill="#000000" font-family="sans-serif" font-size="11" lengthAdjust="spacing" textLength="271" x="327" y="579.9683">int getInteger() throws NumberFormatException</text><ellipse cx="318" cy="589.5625" fill="#84BE84" rx="3" ry="3" style="stroke:#038048;stroke-width:1.0;"/><text fill="#000000" font-family="sans-serif" font-size="11" lengthAdjust="spacing" textLength="133" x="327" y="592.7729">String getPlayerName()</text><ellipse cx="318" cy="602.3672" fill="#84BE84" rx="3" ry="3" style="stroke:#038048;stroke-width:1.0;"/><text fill="#000000" font-family="sans-serif" font-size="11" lengthAdjust="spacing" textLength="85" x="327" y="605.5776">void getEnter()</text><!--MD5=[e76aae3fb42e350194f1072607751ca6]
class OutputHandler--><rect codeLine="66" fill="#FEFECE" filter="url(#fcao8lirwyhz4)" height="86.4141" id="OutputHandler" style="stroke:#A80036;stroke-width:1.5;" width="123" x="687" y="519.4531"/><ellipse cx="703.8" cy="535.4531" fill="#ADD1B2" rx="11" ry="11" style="stroke:#A80036;stroke-width:1.0;"/><path d="M706.1438,531.125 C705.2063,530.6875 704.6125,530.5469 703.7375,530.5469 C701.1125,530.5469 699.1125,532.625 699.1125,535.3438 L699.1125,536.4688 C699.1125,539.0469 701.2219,540.9375 704.1125,540.9375 C705.3313,540.9375 706.4875,540.6406 707.2375,540.0938 C707.8156,539.6875 708.1438,539.2344 708.1438,538.8438 C708.1438,538.3906 707.7531,538 707.2844,538 C707.0656,538 706.8625,538.0781 706.675,538.2656 C706.2219,538.75 706.2219,538.75 706.0344,538.8438 C705.6125,539.1094 704.925,539.2344 704.1594,539.2344 C702.1125,539.2344 700.8156,538.1406 700.8156,536.4375 L700.8156,535.3438 C700.8156,533.5625 702.0656,532.25 703.8,532.25 C704.3781,532.25 704.9875,532.4063 705.4563,532.6563 C705.9406,532.9375 706.1125,533.1563 706.2063,533.5625 C706.2688,533.9688 706.3,534.0938 706.4406,534.2188 C706.5813,534.3594 706.8156,534.4688 707.0344,534.4688 C707.3,534.4688 707.5656,534.3281 707.7375,534.1094 C707.8469,533.9531 707.8781,533.7656 707.8781,533.3438 L707.8781,531.9219 C707.8781,531.4844 707.8625,531.3594 707.7688,531.2031 C707.6125,530.9375 707.3313,530.7969 707.0344,530.7969 C706.7375,530.7969 706.5344,530.8906 706.3156,531.2031 L706.1438,531.125 Z " fill="#000000"/><text fill="#000000" font-family="sans-serif" font-size="12" lengthAdjust="spacing" textLength="87" x="718.2" y="539.6074">OutputHandler</text><line style="stroke:#A80036;stroke-width:1.5;" x1="688" x2="809" y1="551.4531" y2="551.4531"/><line style="stroke:#A80036;stroke-width:1.5;" x1="688" x2="809" y1="559.4531" y2="559.4531"/><ellipse cx="698" cy="570.4531" fill="#84BE84" rx="3" ry="3" style="stroke:#038048;stroke-width:1.0;"/><text fill="#000000" font-family="sans-serif" font-size="11" lengthAdjust="spacing" text-decoration="underline" textLength="82" x="707" y="573.6636">void skipLine()</text><ellipse cx="698" cy="583.2578" fill="#84BE84" rx="3" ry="3" style="stroke:#038048;stroke-width:1.0;"/><text fill="#000000" font-family="sans-serif" font-size="11" lengthAdjust="spacing" text-decoration="underline" textLength="97" x="707" y="586.4683">void welcoming()</text><text fill="#000000" font-family="sans-serif" font-size="11" lengthAdjust="spacing" textLength="17" x="707" y="599.2729">...()</text><!--MD5=[b6dcce5e5ef3c84b0b048d11301373dd]
class Game--><rect codeLine="3" fill="#FEFECE" filter="url(#fcao8lirwyhz4)" height="201.6563" id="Game" style="stroke:#A80036;stroke-width:1.5;" width="239" x="593" y="27.9531"/><ellipse cx="690.75" cy="43.9531" fill="#ADD1B2" rx="11" ry="11" style="stroke:#A80036;stroke-width:1.0;"/><path d="M693.0938,39.625 C692.1563,39.1875 691.5625,39.0469 690.6875,39.0469 C688.0625,39.0469 686.0625,41.125 686.0625,43.8438 L686.0625,44.9688 C686.0625,47.5469 688.1719,49.4375 691.0625,49.4375 C692.2813,49.4375 693.4375,49.1406 694.1875,48.5938 C694.7656,48.1875 695.0938,47.7344 695.0938,47.3438 C695.0938,46.8906 694.7031,46.5 694.2344,46.5 C694.0156,46.5 693.8125,46.5781 693.625,46.7656 C693.1719,47.25 693.1719,47.25 692.9844,47.3438 C692.5625,47.6094 691.875,47.7344 691.1094,47.7344 C689.0625,47.7344 687.7656,46.6406 687.7656,44.9375 L687.7656,43.8438 C687.7656,42.0625 689.0156,40.75 690.75,40.75 C691.3281,40.75 691.9375,40.9063 692.4063,41.1563 C692.8906,41.4375 693.0625,41.6563 693.1563,42.0625 C693.2188,42.4688 693.25,42.5938 693.3906,42.7188 C693.5313,42.8594 693.7656,42.9688 693.9844,42.9688 C694.25,42.9688 694.5156,42.8281 694.6875,42.6094 C694.7969,42.4531 694.8281,42.2656 694.8281,41.8438 L694.8281,40.4219 C694.8281,39.9844 694.8125,39.8594 694.7188,39.7031 C694.5625,39.4375 694.2813,39.2969 693.9844,39.2969 C693.6875,39.2969 693.4844,39.3906 693.2656,39.7031 L693.0938,39.625 Z " fill="#000000"/><text fill="#000000" font-family="sans-serif" font-size="12" lengthAdjust="spacing" textLength="35" x="711.25" y="48.1074">Game</text><line style="stroke:#A80036;stroke-width:1.5;" x1="594" x2="831" y1="59.9531" y2="59.9531"/><rect fill="none" height="6" style="stroke:#C82930;stroke-width:1.0;" width="6" x="601" y="67.9531"/><text fill="#000000" font-family="sans-serif" font-size="11" lengthAdjust="spacing" textLength="89" x="613" y="74.1636">Player[] players</text><rect fill="none" height="6" style="stroke:#C82930;stroke-width:1.0;" width="6" x="601" y="80.7578"/><text fill="#000000" font-family="sans-serif" font-size="11" lengthAdjust="spacing" textLength="85" x="613" y="86.9683">Piece [] peices</text><rect fill="none" height="6" style="stroke:#C82930;stroke-width:1.0;" width="6" x="601" y="93.5625"/><text fill="#000000" font-family="sans-serif" font-size="11" lengthAdjust="spacing" textLength="156" x="613" y="99.7729">StandardDice standardDice</text><rect fill="none" height="6" style="stroke:#C82930;stroke-width:1.0;" width="6" x="601" y="106.3672"/><text fill="#000000" font-family="sans-serif" font-size="11" lengthAdjust="spacing" textLength="69" x="613" y="112.5776">Board board</text><rect fill="none" height="6" style="stroke:#C82930;stroke-width:1.0;" width="6" x="601" y="119.1719"/><text fill="#000000" font-family="sans-serif" font-size="11" lengthAdjust="spacing" textLength="97" x="613" y="125.3823">int numberPlayer</text><line style="stroke:#A80036;stroke-width:1.5;" x1="594" x2="831" y1="131.9766" y2="131.9766"/><rect fill="#F24D5C" height="6" style="stroke:#C82930;stroke-width:1.0;" width="6" x="601" y="139.9766"/><text fill="#000000" font-family="sans-serif" font-size="11" lengthAdjust="spacing" textLength="194" x="613" y="146.187">setUpGame() // set numberplayer</text><rect fill="#F24D5C" height="6" style="stroke:#C82930;stroke-width:1.0;" width="6" x="601" y="152.7813"/><text fill="#000000" font-family="sans-serif" font-size="11" lengthAdjust="spacing" textLength="213" x="613" y="158.9917">initGame() // create Objets set Board</text><rect fill="#F24D5C" height="6" style="stroke:#C82930;stroke-width:1.0;" width="6" x="601" y="165.5859"/><text fill="#000000" font-family="sans-serif" font-size="11" lengthAdjust="spacing" textLength="88" x="613" y="171.7964">createObjects()</text><rect fill="#F24D5C" height="6" style="stroke:#C82930;stroke-width:1.0;" width="6" x="601" y="178.3906"/><text fill="#000000" font-family="sans-serif" font-size="11" lengthAdjust="spacing" textLength="127" x="613" y="184.6011">assignPieceToPLayer()</text><rect fill="#F24D5C" height="6" style="stroke:#C82930;stroke-width:1.0;" width="6" x="601" y="191.1953"/><text fill="#000000" font-family="sans-serif" font-size="11" lengthAdjust="spacing" textLength="94" x="613" y="197.4058">applyCellEffect()</text><rect fill="#F24D5C" height="6" style="stroke:#C82930;stroke-width:1.0;" width="6" x="601" y="204"/><text fill="#000000" font-family="sans-serif" font-size="11" lengthAdjust="spacing" textLength="205" x="613" y="210.2104">setWinnerIfplayerWin(Player player)</text><rect fill="#F24D5C" height="6" style="stroke:#C82930;stroke-width:1.0;" width="6" x="601" y="216.8047"/><text fill="#000000" font-family="sans-serif" font-size="11" lengthAdjust="spacing" textLength="205" x="613" y="223.0151">setEndGameIfGameOverCondition()</text><!--MD5=[2cb47ba637a0d19583e6199456f6ad0b]
class Player--><rect codeLine="19" fill="#FEFECE" filter="url(#fcao8lirwyhz4)" height="150.4375" id="Player" style="stroke:#A80036;stroke-width:1.5;" width="304" x="320.5" y="289.9531"/><ellipse cx="450.25" cy="305.9531" fill="#ADD1B2" rx="11" ry="11" style="stroke:#A80036;stroke-width:1.0;"/><path d="M452.5938,301.625 C451.6563,301.1875 451.0625,301.0469 450.1875,301.0469 C447.5625,301.0469 445.5625,303.125 445.5625,305.8438 L445.5625,306.9688 C445.5625,309.5469 447.6719,311.4375 450.5625,311.4375 C451.7813,311.4375 452.9375,311.1406 453.6875,310.5938 C454.2656,310.1875 454.5938,309.7344 454.5938,309.3438 C454.5938,308.8906 454.2031,308.5 453.7344,308.5 C453.5156,308.5 453.3125,308.5781 453.125,308.7656 C452.6719,309.25 452.6719,309.25 452.4844,309.3438 C452.0625,309.6094 451.375,309.7344 450.6094,309.7344 C448.5625,309.7344 447.2656,308.6406 447.2656,306.9375 L447.2656,305.8438 C447.2656,304.0625 448.5156,302.75 450.25,302.75 C450.8281,302.75 451.4375,302.9063 451.9063,303.1563 C452.3906,303.4375 452.5625,303.6563 452.6563,304.0625 C452.7188,304.4688 452.75,304.5938 452.8906,304.7188 C453.0313,304.8594 453.2656,304.9688 453.4844,304.9688 C453.75,304.9688 454.0156,304.8281 454.1875,304.6094 C454.2969,304.4531 454.3281,304.2656 454.3281,303.8438 L454.3281,302.4219 C454.3281,301.9844 454.3125,301.8594 454.2188,301.7031 C454.0625,301.4375 453.7813,301.2969 453.4844,301.2969 C453.1875,301.2969 452.9844,301.3906 452.7656,301.7031 L452.5938,301.625 Z " fill="#000000"/><text fill="#000000" font-family="sans-serif" font-size="12" lengthAdjust="spacing" textLength="36" x="470.75" y="310.1074">Player</text><line style="stroke:#A80036;stroke-width:1.5;" x1="321.5" x2="623.5" y1="321.9531" y2="321.9531"/><rect fill="none" height="6" style="stroke:#C82930;stroke-width:1.0;" width="6" x="328.5" y="329.9531"/><text fill="#000000" font-family="sans-serif" font-size="11" lengthAdjust="spacing" textLength="73" x="340.5" y="336.1636">String name;</text><rect fill="none" height="6" style="stroke:#C82930;stroke-width:1.0;" width="6" x="328.5" y="342.7578"/><text fill="#000000" font-family="sans-serif" font-size="11" lengthAdjust="spacing" textLength="70" x="340.5" y="348.9683">Piece piece;</text><line style="stroke:#A80036;stroke-width:1.5;" x1="321.5" x2="623.5" y1="355.5625" y2="355.5625"/><rect fill="#F24D5C" height="6" style="stroke:#C82930;stroke-width:1.0;" width="6" x="328.5" y="363.5625"/><text fill="#000000" font-family="sans-serif" font-size="11" lengthAdjust="spacing" textLength="142" x="340.5" y="369.7729">assingPiece(Piece piece)</text><rect fill="#F24D5C" height="6" style="stroke:#C82930;stroke-width:1.0;" width="6" x="328.5" y="376.3672"/><text fill="#000000" font-family="sans-serif" font-size="11" lengthAdjust="spacing" textLength="246" x="340.5" y="382.5776">rollSixFaceDice(StandardDice sixFaceDice)</text><rect fill="#F24D5C" height="6" style="stroke:#C82930;stroke-width:1.0;" width="6" x="328.5" y="389.1719"/><text fill="#000000" font-family="sans-serif" font-size="11" lengthAdjust="spacing" textLength="138" x="340.5" y="395.3823">boolean finishedGame()</text><rect fill="#F24D5C" height="6" style="stroke:#C82930;stroke-width:1.0;" width="6" x="328.5" y="401.9766"/><text fill="#000000" font-family="sans-serif" font-size="11" lengthAdjust="spacing" textLength="30" x="340.5" y="408.187">turn()</text><rect fill="#F24D5C" height="6" style="stroke:#C82930;stroke-width:1.0;" width="6" x="328.5" y="414.7813"/><text fill="#000000" font-family="sans-serif" font-size="11" lengthAdjust="spacing" textLength="165" x="340.5" y="420.9917">playerRollDice(Player player)</text><rect fill="#F24D5C" height="6" style="stroke:#C82930;stroke-width:1.0;" width="6" x="328.5" y="427.5859"/><text fill="#000000" font-family="sans-serif" font-size="11" lengthAdjust="spacing" textLength="278" x="340.5" y="433.7964">movePlayerPiece(Piece playerPiece, int diceRoll)</text><!--MD5=[fea3dc74c7473bae0133d22265a91e2f]
class Cell--><rect codeLine="73" fill="#FEFECE" filter="url(#fcao8lirwyhz4)" height="124.8281" id="Cell" style="stroke:#A80036;stroke-width:1.5;" width="159" x="845" y="499.9531"/><ellipse cx="909.25" cy="515.9531" fill="#ADD1B2" rx="11" ry="11" style="stroke:#A80036;stroke-width:1.0;"/><path d="M911.5938,511.625 C910.6563,511.1875 910.0625,511.0469 909.1875,511.0469 C906.5625,511.0469 904.5625,513.125 904.5625,515.8438 L904.5625,516.9688 C904.5625,519.5469 906.6719,521.4375 909.5625,521.4375 C910.7813,521.4375 911.9375,521.1406 912.6875,520.5938 C913.2656,520.1875 913.5938,519.7344 913.5938,519.3438 C913.5938,518.8906 913.2031,518.5 912.7344,518.5 C912.5156,518.5 912.3125,518.5781 912.125,518.7656 C911.6719,519.25 911.6719,519.25 911.4844,519.3438 C911.0625,519.6094 910.375,519.7344 909.6094,519.7344 C907.5625,519.7344 906.2656,518.6406 906.2656,516.9375 L906.2656,515.8438 C906.2656,514.0625 907.5156,512.75 909.25,512.75 C909.8281,512.75 910.4375,512.9063 910.9063,513.1563 C911.3906,513.4375 911.5625,513.6563 911.6563,514.0625 C911.7188,514.4688 911.75,514.5938 911.8906,514.7188 C912.0313,514.8594 912.2656,514.9688 912.4844,514.9688 C912.75,514.9688 913.0156,514.8281 913.1875,514.6094 C913.2969,514.4531 913.3281,514.2656 913.3281,513.8438 L913.3281,512.4219 C913.3281,511.9844 913.3125,511.8594 913.2188,511.7031 C913.0625,511.4375 912.7813,511.2969 912.4844,511.2969 C912.1875,511.2969 911.9844,511.3906 911.7656,511.7031 L911.5938,511.625 Z " fill="#000000"/><text fill="#000000" font-family="sans-serif" font-size="12" lengthAdjust="spacing" textLength="22" x="929.75" y="520.1074">Cell</text><line style="stroke:#A80036;stroke-width:1.5;" x1="846" x2="1003" y1="531.9531" y2="531.9531"/><rect fill="none" height="6" style="stroke:#C82930;stroke-width:1.0;" width="6" x="853" y="539.9531"/><text fill="#000000" font-family="sans-serif" font-size="11" lengthAdjust="spacing" textLength="103" x="865" y="546.1636">Position POSITION;</text><rect fill="none" height="6" style="stroke:#C82930;stroke-width:1.0;" width="6" x="853" y="552.7578"/><text fill="#000000" font-family="sans-serif" font-size="11" lengthAdjust="spacing" textLength="91" x="865" y="558.9683">Position position</text><line style="stroke:#A80036;stroke-width:1.5;" x1="846" x2="1003" y1="565.5625" y2="565.5625"/><ellipse cx="856" cy="576.5625" fill="#84BE84" rx="3" ry="3" style="stroke:#038048;stroke-width:1.0;"/><text fill="#000000" font-family="sans-serif" font-size="11" lengthAdjust="spacing" textLength="117" x="865" y="579.7729">Position getPosition()</text><rect fill="#F24D5C" height="6" style="stroke:#C82930;stroke-width:1.0;" width="6" x="853" y="586.3672"/><text fill="#000000" font-family="sans-serif" font-size="11" lengthAdjust="spacing" textLength="133" x="865" y="592.5776">CellType getCellType()</text><text fill="#000000" font-family="sans-serif" font-size="11" lengthAdjust="spacing" textLength="87" x="865" y="605.3823">^getCellType()</text><text fill="#000000" font-family="sans-serif" font-size="11" lengthAdjust="spacing" textLength="81" x="865" y="618.187">^applyEffect()</text><!--MD5=[a64a835c3d62471a77f615251fdde58a]
class Position--><rect codeLine="37" fill="#FEFECE" filter="url(#fcao8lirwyhz4)" height="150.4375" id="Position" style="stroke:#A80036;stroke-width:1.5;" width="243" x="288" y="684.9531"/><ellipse cx="382.25" cy="700.9531" fill="#ADD1B2" rx="11" ry="11" style="stroke:#A80036;stroke-width:1.0;"/><path d="M384.5938,696.625 C383.6563,696.1875 383.0625,696.0469 382.1875,696.0469 C379.5625,696.0469 377.5625,698.125 377.5625,700.8438 L377.5625,701.9688 C377.5625,704.5469 379.6719,706.4375 382.5625,706.4375 C383.7813,706.4375 384.9375,706.1406 385.6875,705.5938 C386.2656,705.1875 386.5938,704.7344 386.5938,704.3438 C386.5938,703.8906 386.2031,703.5 385.7344,703.5 C385.5156,703.5 385.3125,703.5781 385.125,703.7656 C384.6719,704.25 384.6719,704.25 384.4844,704.3438 C384.0625,704.6094 383.375,704.7344 382.6094,704.7344 C380.5625,704.7344 379.2656,703.6406 379.2656,701.9375 L379.2656,700.8438 C379.2656,699.0625 380.5156,697.75 382.25,697.75 C382.8281,697.75 383.4375,697.9063 383.9063,698.1563 C384.3906,698.4375 384.5625,698.6563 384.6563,699.0625 C384.7188,699.4688 384.75,699.5938 384.8906,699.7188 C385.0313,699.8594 385.2656,699.9688 385.4844,699.9688 C385.75,699.9688 386.0156,699.8281 386.1875,699.6094 C386.2969,699.4531 386.3281,699.2656 386.3281,698.8438 L386.3281,697.4219 C386.3281,696.9844 386.3125,696.8594 386.2188,696.7031 C386.0625,696.4375 385.7813,696.2969 385.4844,696.2969 C385.1875,696.2969 384.9844,696.3906 384.7656,696.7031 L384.5938,696.625 Z " fill="#000000"/><text fill="#000000" font-family="sans-serif" font-size="12" lengthAdjust="spacing" textLength="46" x="402.75" y="705.1074">Position</text><line style="stroke:#A80036;stroke-width:1.5;" x1="289" x2="530" y1="716.9531" y2="716.9531"/><rect fill="none" height="6" style="stroke:#C82930;stroke-width:1.0;" width="6" x="296" y="724.9531"/><text fill="#000000" font-family="sans-serif" font-size="11" lengthAdjust="spacing" textLength="62" x="308" y="731.1636">int posLine</text><rect fill="none" height="6" style="stroke:#C82930;stroke-width:1.0;" width="6" x="296" y="737.7578"/><text fill="#000000" font-family="sans-serif" font-size="11" lengthAdjust="spacing" textLength="81" x="308" y="743.9683">int posColumn</text><rect fill="none" height="6" style="stroke:#C82930;stroke-width:1.0;" width="6" x="296" y="750.5625"/><text fill="#000000" font-family="sans-serif" font-size="11" lengthAdjust="spacing" textLength="217" x="308" y="756.7729">int WIDTH = Board.STANDARD_WIDTH</text><line style="stroke:#A80036;stroke-width:1.5;" x1="289" x2="530" y1="763.3672" y2="763.3672"/><ellipse cx="299" cy="774.3672" fill="#84BE84" rx="3" ry="3" style="stroke:#038048;stroke-width:1.0;"/><text fill="#000000" font-family="sans-serif" font-size="11" lengthAdjust="spacing" text-decoration="underline" textLength="165" x="308" y="777.5776">Position getPosition(int cellId)</text><ellipse cx="299" cy="787.1719" fill="#84BE84" rx="3" ry="3" style="stroke:#038048;stroke-width:1.0;"/><text fill="#000000" font-family="sans-serif" font-size="11" lengthAdjust="spacing" text-decoration="underline" textLength="168" x="308" y="790.3823">int getCellId(Position position)</text><ellipse cx="299" cy="799.9766" fill="#84BE84" rx="3" ry="3" style="stroke:#038048;stroke-width:1.0;"/><text fill="#000000" font-family="sans-serif" font-size="11" lengthAdjust="spacing" textLength="140" x="308" y="803.187">Position plus(int number)</text><ellipse cx="299" cy="812.7813" fill="#84BE84" rx="3" ry="3" style="stroke:#038048;stroke-width:1.0;"/><text fill="#000000" font-family="sans-serif" font-size="11" lengthAdjust="spacing" textLength="197" x="308" y="815.9917">boolean isBefore(Position position)</text><ellipse cx="299" cy="825.5859" fill="#84BE84" rx="3" ry="3" style="stroke:#038048;stroke-width:1.0;"/><text fill="#000000" font-family="sans-serif" font-size="11" lengthAdjust="spacing" textLength="186" x="308" y="828.7964">boolean isValid(Position position)</text><!--MD5=[e05bacf3ff4416a0580578814d41bbf6]
class Piece--><rect codeLine="49" fill="#FEFECE" filter="url(#fcao8lirwyhz4)" height="112.0234" id="Piece" style="stroke:#A80036;stroke-width:1.5;" width="265" x="7" y="506.4531"/><ellipse cx="119.25" cy="522.4531" fill="#ADD1B2" rx="11" ry="11" style="stroke:#A80036;stroke-width:1.0;"/><path d="M121.5938,518.125 C120.6563,517.6875 120.0625,517.5469 119.1875,517.5469 C116.5625,517.5469 114.5625,519.625 114.5625,522.3438 L114.5625,523.4688 C114.5625,526.0469 116.6719,527.9375 119.5625,527.9375 C120.7813,527.9375 121.9375,527.6406 122.6875,527.0938 C123.2656,526.6875 123.5938,526.2344 123.5938,525.8438 C123.5938,525.3906 123.2031,525 122.7344,525 C122.5156,525 122.3125,525.0781 122.125,525.2656 C121.6719,525.75 121.6719,525.75 121.4844,525.8438 C121.0625,526.1094 120.375,526.2344 119.6094,526.2344 C117.5625,526.2344 116.2656,525.1406 116.2656,523.4375 L116.2656,522.3438 C116.2656,520.5625 117.5156,519.25 119.25,519.25 C119.8281,519.25 120.4375,519.4063 120.9063,519.6563 C121.3906,519.9375 121.5625,520.1563 121.6563,520.5625 C121.7188,520.9688 121.75,521.0938 121.8906,521.2188 C122.0313,521.3594 122.2656,521.4688 122.4844,521.4688 C122.75,521.4688 123.0156,521.3281 123.1875,521.1094 C123.2969,520.9531 123.3281,520.7656 123.3281,520.3438 L123.3281,518.9219 C123.3281,518.4844 123.3125,518.3594 123.2188,518.2031 C123.0625,517.9375 122.7813,517.7969 122.4844,517.7969 C122.1875,517.7969 121.9844,517.8906 121.7656,518.2031 L121.5938,518.125 Z " fill="#000000"/><text fill="#000000" font-family="sans-serif" font-size="12" lengthAdjust="spacing" textLength="32" x="139.75" y="526.6074">Piece</text><line style="stroke:#A80036;stroke-width:1.5;" x1="8" x2="271" y1="538.4531" y2="538.4531"/><rect fill="none" height="6" style="stroke:#C82930;stroke-width:1.0;" width="6" x="15" y="546.4531"/><text fill="#000000" font-family="sans-serif" font-size="11" lengthAdjust="spacing" textLength="91" x="27" y="552.6636">Position position</text><rect fill="none" height="6" style="stroke:#C82930;stroke-width:1.0;" width="6" x="15" y="559.2578"/><text fill="#000000" font-family="sans-serif" font-size="11" lengthAdjust="spacing" textLength="163" x="27" y="565.4683">boolean onFinishCell = false</text><line style="stroke:#A80036;stroke-width:1.5;" x1="8" x2="271" y1="572.0625" y2="572.0625"/><ellipse cx="18" cy="583.0625" fill="#84BE84" rx="3" ry="3" style="stroke:#038048;stroke-width:1.0;"/><text fill="#000000" font-family="sans-serif" font-size="11" lengthAdjust="spacing" textLength="117" x="27" y="586.2729">Position getPosition()</text><ellipse cx="18" cy="595.8672" fill="#84BE84" rx="3" ry="3" style="stroke:#038048;stroke-width:1.0;"/><text fill="#000000" font-family="sans-serif" font-size="11" lengthAdjust="spacing" textLength="239" x="27" y="599.0776">void moveTo(Position positionDestination)</text><ellipse cx="18" cy="608.6719" fill="#84BE84" rx="3" ry="3" style="stroke:#038048;stroke-width:1.0;"/><text fill="#000000" font-family="sans-serif" font-size="11" lengthAdjust="spacing" textLength="124" x="27" y="611.8823">void setOnFinishCell()</text><!--MD5=[f455b5ca79b559e615042c1fde6a4741]
class CellEffect--><rect codeLine="80" fill="#FEFECE" filter="url(#fcao8lirwyhz4)" height="73.6094" id="CellEffect" style="stroke:#A80036;stroke-width:1.5;" width="104" x="836.5" y="327.9531"/><ellipse cx="858.7" cy="343.9531" fill="#B4A7E5" rx="11" ry="11" style="stroke:#A80036;stroke-width:1.0;"/><path d="M859.6531,340.7344 L861.3719,340.7344 C861.7625,340.7344 861.95,340.7031 862.075,340.625 C862.3406,340.4688 862.4813,340.1875 862.4813,339.8906 C862.4813,339.625 862.3719,339.3594 862.1375,339.1875 C861.9656,339.0781 861.825,339.0469 861.3719,339.0469 L856.2313,339.0469 C855.7938,339.0469 855.6688,339.0625 855.5125,339.1563 C855.2625,339.3125 855.1063,339.6094 855.1063,339.8906 C855.1063,340.1719 855.2469,340.4219 855.4656,340.5938 C855.6219,340.7031 855.8094,340.7344 856.2313,340.7344 L857.95,340.7344 L857.95,347.25 L856.2313,347.25 C855.7938,347.25 855.6688,347.2656 855.5125,347.375 C855.2625,347.5313 855.1063,347.8125 855.1063,348.1094 C855.1063,348.3594 855.2469,348.625 855.4656,348.7813 C855.6219,348.9063 855.825,348.9531 856.2313,348.9531 L861.3719,348.9531 C862.1219,348.9531 862.4813,348.6719 862.4813,348.1094 C862.4813,347.8281 862.3719,347.5781 862.1375,347.4063 C861.9656,347.2813 861.825,347.25 861.3719,347.25 L859.6531,347.25 L859.6531,340.7344 Z " fill="#000000"/><text fill="#000000" font-family="sans-serif" font-size="12" font-style="italic" lengthAdjust="spacing" textLength="56" x="874.3" y="348.1074">CellEffect</text><line style="stroke:#A80036;stroke-width:1.5;" x1="837.5" x2="939.5" y1="359.9531" y2="359.9531"/><line style="stroke:#A80036;stroke-width:1.5;" x1="837.5" x2="939.5" y1="367.9531" y2="367.9531"/><rect fill="#F24D5C" height="6" style="stroke:#C82930;stroke-width:1.0;" width="6" x="844.5" y="375.9531"/><text fill="#000000" font-family="sans-serif" font-size="11" lengthAdjust="spacing" textLength="78" x="856.5" y="382.1636">getCellType()</text><rect fill="#F24D5C" height="6" style="stroke:#C82930;stroke-width:1.0;" width="6" x="844.5" y="388.7578"/><text fill="#000000" font-family="sans-serif" font-size="11" lengthAdjust="spacing" textLength="72" x="856.5" y="394.9683">applyEffect()</text><!--MD5=[f4a0e00e940111263a3bc4e859d32228]
class MovingCell--><rect codeLine="85" fill="#FEFECE" filter="url(#fcao8lirwyhz4)" height="99.2188" id="MovingCell" style="stroke:#A80036;stroke-width:1.5;" width="179" x="740" y="710.4531"/><ellipse cx="792.75" cy="726.4531" fill="#ADD1B2" rx="11" ry="11" style="stroke:#A80036;stroke-width:1.0;"/><path d="M795.0938,722.125 C794.1563,721.6875 793.5625,721.5469 792.6875,721.5469 C790.0625,721.5469 788.0625,723.625 788.0625,726.3438 L788.0625,727.4688 C788.0625,730.0469 790.1719,731.9375 793.0625,731.9375 C794.2813,731.9375 795.4375,731.6406 796.1875,731.0938 C796.7656,730.6875 797.0938,730.2344 797.0938,729.8438 C797.0938,729.3906 796.7031,729 796.2344,729 C796.0156,729 795.8125,729.0781 795.625,729.2656 C795.1719,729.75 795.1719,729.75 794.9844,729.8438 C794.5625,730.1094 793.875,730.2344 793.1094,730.2344 C791.0625,730.2344 789.7656,729.1406 789.7656,727.4375 L789.7656,726.3438 C789.7656,724.5625 791.0156,723.25 792.75,723.25 C793.3281,723.25 793.9375,723.4063 794.4063,723.6563 C794.8906,723.9375 795.0625,724.1563 795.1563,724.5625 C795.2188,724.9688 795.25,725.0938 795.3906,725.2188 C795.5313,725.3594 795.7656,725.4688 795.9844,725.4688 C796.25,725.4688 796.5156,725.3281 796.6875,725.1094 C796.7969,724.9531 796.8281,724.7656 796.8281,724.3438 L796.8281,722.9219 C796.8281,722.4844 796.8125,722.3594 796.7188,722.2031 C796.5625,721.9375 796.2813,721.7969 795.9844,721.7969 C795.6875,721.7969 795.4844,721.8906 795.2656,722.2031 L795.0938,722.125 Z " fill="#000000"/><text fill="#000000" font-family="sans-serif" font-size="12" lengthAdjust="spacing" textLength="65" x="813.25" y="730.6074">MovingCell</text><line style="stroke:#A80036;stroke-width:1.5;" x1="741" x2="918" y1="742.4531" y2="742.4531"/><rect fill="none" height="6" style="stroke:#C82930;stroke-width:1.0;" width="6" x="748" y="750.4531"/><text fill="#000000" font-family="sans-serif" font-size="11" lengthAdjust="spacing" textLength="153" x="760" y="756.6636">Position destinationPosition</text><rect fill="none" height="6" style="stroke:#C82930;stroke-width:1.0;" width="6" x="748" y="763.2578"/><text fill="#000000" font-family="sans-serif" font-size="11" lengthAdjust="spacing" textLength="104" x="760" y="769.4683">CellType cellType</text><line style="stroke:#A80036;stroke-width:1.5;" x1="741" x2="918" y1="776.0625" y2="776.0625"/><text fill="#000000" font-family="sans-serif" font-size="11" lengthAdjust="spacing" textLength="87" x="746" y="790.2729">^getCellType()</text><text fill="#000000" font-family="sans-serif" font-size="11" lengthAdjust="spacing" textLength="81" x="746" y="803.0776">^applyEffect()</text><!--MD5=[b0ced64c5d14acf81504c81543f324f8]
class FinishCell--><rect codeLine="92" fill="#FEFECE" filter="url(#fcao8lirwyhz4)" height="86.4141" id="FinishCell" style="stroke:#A80036;stroke-width:1.5;" width="130" x="954.5" y="716.9531"/><ellipse cx="988.4" cy="732.9531" fill="#ADD1B2" rx="11" ry="11" style="stroke:#A80036;stroke-width:1.0;"/><path d="M990.7438,728.625 C989.8063,728.1875 989.2125,728.0469 988.3375,728.0469 C985.7125,728.0469 983.7125,730.125 983.7125,732.8438 L983.7125,733.9688 C983.7125,736.5469 985.8219,738.4375 988.7125,738.4375 C989.9313,738.4375 991.0875,738.1406 991.8375,737.5938 C992.4156,737.1875 992.7438,736.7344 992.7438,736.3438 C992.7438,735.8906 992.3531,735.5 991.8844,735.5 C991.6656,735.5 991.4625,735.5781 991.275,735.7656 C990.8219,736.25 990.8219,736.25 990.6344,736.3438 C990.2125,736.6094 989.525,736.7344 988.7594,736.7344 C986.7125,736.7344 985.4156,735.6406 985.4156,733.9375 L985.4156,732.8438 C985.4156,731.0625 986.6656,729.75 988.4,729.75 C988.9781,729.75 989.5875,729.9063 990.0563,730.1563 C990.5406,730.4375 990.7125,730.6563 990.8063,731.0625 C990.8688,731.4688 990.9,731.5938 991.0406,731.7188 C991.1813,731.8594 991.4156,731.9688 991.6344,731.9688 C991.9,731.9688 992.1656,731.8281 992.3375,731.6094 C992.4469,731.4531 992.4781,731.2656 992.4781,730.8438 L992.4781,729.4219 C992.4781,728.9844 992.4625,728.8594 992.3688,728.7031 C992.2125,728.4375 991.9313,728.2969 991.6344,728.2969 C991.3375,728.2969 991.1344,728.3906 990.9156,728.7031 L990.7438,728.625 Z " fill="#000000"/><text fill="#000000" font-family="sans-serif" font-size="12" lengthAdjust="spacing" textLength="56" x="1006.6" y="737.1074">FinishCell</text><line style="stroke:#A80036;stroke-width:1.5;" x1="955.5" x2="1083.5" y1="748.9531" y2="748.9531"/><rect fill="none" height="6" style="stroke:#C82930;stroke-width:1.0;" width="6" x="962.5" y="756.9531"/><text fill="#000000" font-family="sans-serif" font-size="11" lengthAdjust="spacing" textLength="104" x="974.5" y="763.1636">CellType cellType</text><line style="stroke:#A80036;stroke-width:1.5;" x1="955.5" x2="1083.5" y1="769.7578" y2="769.7578"/><text fill="#000000" font-family="sans-serif" font-size="11" lengthAdjust="spacing" textLength="87" x="960.5" y="783.9683">^getCellType()</text><text fill="#000000" font-family="sans-serif" font-size="11" lengthAdjust="spacing" textLength="81" x="960.5" y="796.7729">^applyEffect()</text><!--MD5=[9563755d011c5cec7ec66dc53565a59e]
class Board--><rect codeLine="98" fill="#FEFECE" filter="url(#fcao8lirwyhz4)" height="86.4141" id="Board" style="stroke:#A80036;stroke-width:1.5;" width="166" x="975.5" y="321.9531"/><ellipse cx="1036.25" cy="337.9531" fill="#ADD1B2" rx="11" ry="11" style="stroke:#A80036;stroke-width:1.0;"/><path d="M1038.5938,333.625 C1037.6563,333.1875 1037.0625,333.0469 1036.1875,333.0469 C1033.5625,333.0469 1031.5625,335.125 1031.5625,337.8438 L1031.5625,338.9688 C1031.5625,341.5469 1033.6719,343.4375 1036.5625,343.4375 C1037.7813,343.4375 1038.9375,343.1406 1039.6875,342.5938 C1040.2656,342.1875 1040.5938,341.7344 1040.5938,341.3438 C1040.5938,340.8906 1040.2031,340.5 1039.7344,340.5 C1039.5156,340.5 1039.3125,340.5781 1039.125,340.7656 C1038.6719,341.25 1038.6719,341.25 1038.4844,341.3438 C1038.0625,341.6094 1037.375,341.7344 1036.6094,341.7344 C1034.5625,341.7344 1033.2656,340.6406 1033.2656,338.9375 L1033.2656,337.8438 C1033.2656,336.0625 1034.5156,334.75 1036.25,334.75 C1036.8281,334.75 1037.4375,334.9063 1037.9063,335.1563 C1038.3906,335.4375 1038.5625,335.6563 1038.6563,336.0625 C1038.7188,336.4688 1038.75,336.5938 1038.8906,336.7188 C1039.0313,336.8594 1039.2656,336.9688 1039.4844,336.9688 C1039.75,336.9688 1040.0156,336.8281 1040.1875,336.6094 C1040.2969,336.4531 1040.3281,336.2656 1040.3281,335.8438 L1040.3281,334.4219 C1040.3281,333.9844 1040.3125,333.8594 1040.2188,333.7031 C1040.0625,333.4375 1039.7813,333.2969 1039.4844,333.2969 C1039.1875,333.2969 1038.9844,333.3906 1038.7656,333.7031 L1038.5938,333.625 Z " fill="#000000"/><text fill="#000000" font-family="sans-serif" font-size="12" lengthAdjust="spacing" textLength="36" x="1056.75" y="342.1074">Board</text><line style="stroke:#A80036;stroke-width:1.5;" x1="976.5" x2="1140.5" y1="353.9531" y2="353.9531"/><rect fill="none" height="6" style="stroke:#C82930;stroke-width:1.0;" width="6" x="983.5" y="361.9531"/><text fill="#000000" font-family="sans-serif" font-size="11" lengthAdjust="spacing" textLength="69" x="995.5" y="368.1636">Cell CELLS[]</text><line style="stroke:#A80036;stroke-width:1.5;" x1="976.5" x2="1140.5" y1="374.7578" y2="374.7578"/><rect fill="#F24D5C" height="6" style="stroke:#C82930;stroke-width:1.0;" width="6" x="983.5" y="382.7578"/><text fill="#000000" font-family="sans-serif" font-size="11" lengthAdjust="spacing" textLength="140" x="995.5" y="388.9683">getCell(Position position)</text><rect fill="#F24D5C" height="6" style="stroke:#C82930;stroke-width:1.0;" width="6" x="983.5" y="395.5625"/><text fill="#000000" font-family="sans-serif" font-size="11" lengthAdjust="spacing" textLength="126" x="995.5" y="401.7729">setUp(Piece [] peices)</text><!--MD5=[d98227dae446740599df86951640dfa8]
class CellFactory--><rect codeLine="104" fill="#FEFECE" filter="url(#fcao8lirwyhz4)" height="86.4141" id="CellFactory" style="stroke:#A80036;stroke-width:1.5;" width="271" x="1159" y="519.4531"/><ellipse cx="1256.75" cy="535.4531" fill="#ADD1B2" rx="11" ry="11" style="stroke:#A80036;stroke-width:1.0;"/><path d="M1259.0938,531.125 C1258.1563,530.6875 1257.5625,530.5469 1256.6875,530.5469 C1254.0625,530.5469 1252.0625,532.625 1252.0625,535.3438 L1252.0625,536.4688 C1252.0625,539.0469 1254.1719,540.9375 1257.0625,540.9375 C1258.2813,540.9375 1259.4375,540.6406 1260.1875,540.0938 C1260.7656,539.6875 1261.0938,539.2344 1261.0938,538.8438 C1261.0938,538.3906 1260.7031,538 1260.2344,538 C1260.0156,538 1259.8125,538.0781 1259.625,538.2656 C1259.1719,538.75 1259.1719,538.75 1258.9844,538.8438 C1258.5625,539.1094 1257.875,539.2344 1257.1094,539.2344 C1255.0625,539.2344 1253.7656,538.1406 1253.7656,536.4375 L1253.7656,535.3438 C1253.7656,533.5625 1255.0156,532.25 1256.75,532.25 C1257.3281,532.25 1257.9375,532.4063 1258.4063,532.6563 C1258.8906,532.9375 1259.0625,533.1563 1259.1563,533.5625 C1259.2188,533.9688 1259.25,534.0938 1259.3906,534.2188 C1259.5313,534.3594 1259.7656,534.4688 1259.9844,534.4688 C1260.25,534.4688 1260.5156,534.3281 1260.6875,534.1094 C1260.7969,533.9531 1260.8281,533.7656 1260.8281,533.3438 L1260.8281,531.9219 C1260.8281,531.4844 1260.8125,531.3594 1260.7188,531.2031 C1260.5625,530.9375 1260.2813,530.7969 1259.9844,530.7969 C1259.6875,530.7969 1259.4844,530.8906 1259.2656,531.2031 L1259.0938,531.125 Z " fill="#000000"/><text fill="#000000" font-family="sans-serif" font-size="12" lengthAdjust="spacing" textLength="67" x="1277.25" y="539.6074">CellFactory</text><line style="stroke:#A80036;stroke-width:1.5;" x1="1160" x2="1429" y1="551.4531" y2="551.4531"/><rect fill="none" height="6" style="stroke:#C82930;stroke-width:1.0;" width="6" x="1167" y="559.4531"/><text fill="#000000" font-family="sans-serif" font-size="11" lengthAdjust="spacing" textLength="245" x="1179" y="565.6636">HashMap&lt;Integer,Integer&gt; MOVING_CELLS</text><line style="stroke:#A80036;stroke-width:1.5;" x1="1160" x2="1429" y1="572.2578" y2="572.2578"/><rect fill="#F24D5C" height="6" style="stroke:#C82930;stroke-width:1.0;" width="6" x="1167" y="580.2578"/><text fill="#000000" font-family="sans-serif" font-size="11" lengthAdjust="spacing" textLength="184" x="1179" y="586.4683">createCells(int boardDimension)</text><rect fill="#F24D5C" height="6" style="stroke:#C82930;stroke-width:1.0;" width="6" x="1167" y="593.0625"/><text fill="#000000" font-family="sans-serif" font-size="11" lengthAdjust="spacing" textLength="99" x="1179" y="599.2729">createFinishCell()</text><!--MD5=[fbe32b51910125c131168b24138abac5]
class CellType--><rect codeLine="110" fill="#FEFECE" filter="url(#fcao8lirwyhz4)" height="99.2188" id="CellType" style="stroke:#A80036;stroke-width:1.5;" width="84" x="1039.5" y="512.9531"/><ellipse cx="1054.5" cy="528.9531" fill="#EB937F" rx="11" ry="11" style="stroke:#A80036;stroke-width:1.0;"/><path d="M1053.2969,529.8281 L1054.75,529.8281 L1054.75,529.9375 C1054.75,530.3438 1054.7813,530.5 1054.8594,530.6563 C1055.0156,530.9063 1055.2969,531.0625 1055.5938,531.0625 C1055.8438,531.0625 1056.1094,530.9219 1056.2656,530.7031 C1056.3906,530.5469 1056.4219,530.3906 1056.4219,529.9375 L1056.4219,528.0156 C1056.4219,527.8594 1056.4219,527.8125 1056.4063,527.6563 C1056.3438,527.1875 1056.0313,526.875 1055.5781,526.875 C1055.3281,526.875 1055.0625,527.0156 1054.8906,527.2344 C1054.7813,527.4063 1054.75,527.5625 1054.75,528.0156 L1054.75,528.1406 L1053.2969,528.1406 L1053.2969,525.7344 L1057.2813,525.7344 L1057.2813,526.5938 C1057.2813,527 1057.3125,527.1719 1057.3906,527.3281 C1057.5625,527.5781 1057.8438,527.7344 1058.125,527.7344 C1058.3906,527.7344 1058.6563,527.5938 1058.8281,527.375 C1058.9375,527.2031 1058.9688,527.0625 1058.9688,526.5938 L1058.9688,524.0469 L1051.3438,524.0469 C1050.9063,524.0469 1050.7813,524.0625 1050.625,524.1563 C1050.375,524.3125 1050.2188,524.6094 1050.2188,524.8906 C1050.2188,525.1719 1050.3594,525.4219 1050.5781,525.5938 C1050.7344,525.7031 1050.9219,525.7344 1051.3438,525.7344 L1051.5938,525.7344 L1051.5938,532.25 L1051.3438,532.25 C1050.9375,532.25 1050.7813,532.2656 1050.625,532.375 C1050.375,532.5469 1050.2188,532.8125 1050.2188,533.1094 C1050.2188,533.375 1050.3594,533.625 1050.5781,533.7813 C1050.7188,533.9063 1050.9531,533.9531 1051.3438,533.9531 L1059.3438,533.9531 L1059.3438,531.375 C1059.3438,530.9375 1059.3125,530.7969 1059.2344,530.6406 C1059.0625,530.3906 1058.7813,530.2344 1058.5,530.2344 C1058.2344,530.2344 1057.9688,530.3438 1057.7969,530.5938 C1057.6875,530.75 1057.6563,530.8906 1057.6563,531.375 L1057.6563,532.25 L1053.2969,532.25 L1053.2969,529.8281 Z " fill="#000000"/><text fill="#000000" font-family="sans-serif" font-size="12" lengthAdjust="spacing" textLength="52" x="1068.5" y="533.1074">CellType</text><line style="stroke:#A80036;stroke-width:1.5;" x1="1040.5" x2="1122.5" y1="544.9531" y2="544.9531"/><text fill="#000000" font-family="sans-serif" font-size="11" lengthAdjust="spacing" textLength="49" x="1045.5" y="559.1636">LADDER,</text><text fill="#000000" font-family="sans-serif" font-size="11" lengthAdjust="spacing" textLength="41" x="1045.5" y="571.9683">SNAKE,</text><text fill="#000000" font-family="sans-serif" font-size="11" lengthAdjust="spacing" textLength="50" x="1045.5" y="584.7729">NORMAL,</text><text fill="#000000" font-family="sans-serif" font-size="11" lengthAdjust="spacing" textLength="36" x="1045.5" y="597.5776">FINISH</text><line style="stroke:#A80036;stroke-width:1.5;" x1="1040.5" x2="1122.5" y1="604.1719" y2="604.1719"/><!--MD5=[459e252821eb065098627005853df98e]
reverse link CellEffect to Cell--><path d="M898.869,422.2641 C903.324,446.4571 908.545,474.8061 913.107,499.5841 " fill="none" id="CellEffect-backto-Cell" style="stroke:#A80036;stroke-width:1.0;stroke-dasharray:7.0,7.0;"/><polygon fill="none" points="891.925,423.2041,895.187,402.2671,905.693,420.6681,891.925,423.2041" style="stroke:#A80036;stroke-width:1.0;"/><!--MD5=[5f6926de7852e05c7debe6fc21b0d7dd]
reverse link Cell to MovingCell--><path d="M885.7,643.3001 C874.652,666.0351 862.954,690.1091 853.108,710.3711 " fill="none" id="Cell-backto-MovingCell" style="stroke:#A80036;stroke-width:1.0;"/><polygon fill="none" points="879.534,639.9711,894.572,625.0421,892.126,646.0901,879.534,639.9711" style="stroke:#A80036;stroke-width:1.0;"/><!--MD5=[447a7ec59697c8c1994ccee222ee4f23]
reverse link Cell to FinishCell--><path d="M963.18,643.0511 C975.464,668.3311 988.563,695.2891 999.035,716.8381 " fill="none" id="Cell-backto-FinishCell" style="stroke:#A80036;stroke-width:1.0;"/><polygon fill="none" points="956.874,646.0901,954.428,625.0421,969.466,639.9711,956.874,646.0901" style="stroke:#A80036;stroke-width:1.0;"/><!--MD5=[093c847eb153a97c216aa78e4edf65cf]
link Board to CellFactory--><path codeLine="117" d="M1109.42,408.1331 C1149.12,441.0221 1203.99,486.4791 1243.67,519.3491 " fill="none" id="Board-CellFactory" style="stroke:#A80036;stroke-width:1.0;"/><text fill="#000000" font-family="sans-serif" font-size="13" lengthAdjust="spacing" textLength="30" x="1203.1783" y="508.3286">build</text><!--MD5=[9e3aaee972c10072cf972ab53cb2b6ab]
reverse link Cell to CellType--><path codeLine="118" d="M1017.36,562.4531 C1024.65,562.4531 1031.95,562.4531 1039.24,562.4531 " fill="none" id="Cell-backto-CellType" style="stroke:#A80036;stroke-width:1.0;"/><polygon fill="#A80036" points="1004.227,562.4531,1010.227,566.4531,1016.227,562.4531,1010.227,558.4531,1004.227,562.4531" style="stroke:#A80036;stroke-width:1.0;"/><!--MD5=[d80fc484ee68f400f3119ddff68de44b]
reverse link Game to Board--><path codeLine="122" d="M843.045,212.7741 C880.622,237.1751 921.457,264.2361 958.5,289.9531 C973.048,300.0531 988.536,311.2751 1002.869,321.8641 " fill="none" id="Game-backto-Board" style="stroke:#A80036;stroke-width:1.0;"/><polygon fill="#A80036" points="832.019,205.6301,834.8789,212.2499,842.0894,212.156,839.2295,205.5363,832.019,205.6301" style="stroke:#A80036;stroke-width:1.0;"/><!--MD5=[5778a4432fb065f83ccf0aa932a03c78]
reverse link Board to Cell--><path codeLine="123" d="M1021.85,419.4271 C1004.803,444.2951 984.435,474.0101 966.746,499.8181 " fill="none" id="Board-backto-Cell" style="stroke:#A80036;stroke-width:1.0;"/><polygon fill="#A80036" points="1029.42,408.3741,1022.7291,411.0632,1022.6379,418.2738,1029.3288,415.5847,1029.42,408.3741" style="stroke:#A80036;stroke-width:1.0;"/><!--MD5=[bbc6ee62d3d47812e486fb9dc1de45ab]
reverse link Game to Player--><path codeLine="124" d="M600.032,239.6101 C582.62,256.5861 564.995,273.7701 548.633,289.7241 " fill="none" id="Game-backto-Player" style="stroke:#A80036;stroke-width:1.0;"/><polygon fill="#A80036" points="609.674,230.2081,602.5855,231.5321,601.0813,238.5846,608.1698,237.2606,609.674,230.2081" style="stroke:#A80036;stroke-width:1.0;"/><!--MD5=[48991ecc17b70b4289c6d3af9cc0871b]
reverse link Cell to Position--><path codeLine="125" d="M834.773,631.6131 C832.018,633.1291 829.258,634.5801 826.5,635.9531 C732.239,682.8761 616.884,715.1841 531.414,734.8711 " fill="none" id="Cell-backto-Position" style="stroke:#A80036;stroke-width:1.0;"/><polygon fill="#A80036" points="846.04,625.0501,838.8421,624.6136,835.6708,631.0899,842.8687,631.5264,846.04,625.0501" style="stroke:#A80036;stroke-width:1.0;"/><!--MD5=[62ea41e95c4692cb948df2194eb6bb4a]
link Piece to Position--><path codeLine="126" d="M215.789,618.6921 C242.84,638.2781 273.796,660.6941 302.908,681.7721 " fill="none" id="Piece-to-Position" style="stroke:#A80036;stroke-width:1.0;"/><polygon fill="#A80036" points="307.189,684.8721,302.2457,676.3537,303.1393,681.9395,297.5535,682.8332,307.189,684.8721" style="stroke:#A80036;stroke-width:1.0;"/><text fill="#000000" font-family="sans-serif" font-size="13" lengthAdjust="spacing" textLength="54" x="240.4599" y="673.795">possede</text><!--MD5=[ec77ffabf215c452de535e5e27276e25]
reverse link Player to Piece--><path codeLine="127" d="M330.619,446.5591 C317.033,454.4181 303.486,462.3101 290.5,469.9531 C270.687,481.6141 249.523,494.2961 229.5,506.4001 " fill="none" id="Player-backto-Piece" style="stroke:#A80036;stroke-width:1.0;"/><polygon fill="#A80036" points="342.029,439.9701,334.8328,439.5064,331.637,445.9706,338.8331,446.4344,342.029,439.9701" style="stroke:#A80036;stroke-width:1.0;"/><!--MD5=[dc664ddad2a69dc51e7199b3e340d959]
link Game to OutputHandler--><path codeLine="128" d="M720.85,230.0321 C728.299,319.3251 738.88,446.1471 744.55,514.1041 " fill="none" id="Game-to-OutputHandler" style="stroke:#A80036;stroke-width:1.0;"/><polygon fill="#A80036" points="744.983,519.2931,748.2209,509.9917,744.5673,514.3104,740.2486,510.6568,744.983,519.2931" style="stroke:#A80036;stroke-width:1.0;"/><!--MD5=[f62ffd53fdb67c6d62f6a428b01fa189]
reverse link Game to InputHandler--><path codeLine="129" d="M705.545,243.0591 C697.273,305.2851 679.486,381.4941 641.5,439.9531 C622.728,468.8431 594.588,493.4191 567.003,512.7511 " fill="none" id="Game-backto-InputHandler" style="stroke:#A80036;stroke-width:1.0;"/><polygon fill="#A80036" points="707.17,230.0041,702.4595,235.4641,705.6878,241.9122,710.3982,236.4523,707.17,230.0041" style="stroke:#A80036;stroke-width:1.0;"/><!--MD5=[199be9f7ae6438c94c6778622eea6005]
reverse link Player to InputHandler--><path codeLine="130" d="M475.631,453.4061 C476.361,473.7801 477.112,494.7571 477.756,512.7441 " fill="none" id="Player-backto-InputHandler" style="stroke:#A80036;stroke-width:1.0;"/><polygon fill="#A80036" points="475.156,440.1421,471.3728,446.2812,475.5846,452.1345,479.3677,445.9954,475.156,440.1421" style="stroke:#A80036;stroke-width:1.0;"/><!--MD5=[81c96ad0304b7ddeed5a94f8a5c47ccc]
@startuml
Title Diagramme de classes

class Game {
    -Player[] players
    -Piece [] peices
    -StandardDice standardDice
    -Board board
    -int numberPlayer

    -setUpGame() // set numberplayer
    -initGame() // create Objets set Board
    -createObjects()
    -assignPieceToPLayer()
    -applyCellEffect()
    -setWinnerIfplayerWin(Player player)
    -setEndGameIfGameOverCondition()
}

class Player {
    -String name;
    -Piece piece;

    -assingPiece(Piece piece)
    -rollSixFaceDice(StandardDice sixFaceDice)
    -boolean finishedGame()
    -turn()
    -playerRollDice(Player player)
    -movePlayerPiece(Piece playerPiece, int diceRoll)
}


class Cell {
    -Position POSITION;
    +Position getPosition()
}

class Position {
    -int posLine
    -int posColumn
    -int WIDTH = Board.STANDARD_WIDTH

    +{static} Position getPosition(int cellId)
    +{static} int getCellId(Position position)
    +Position plus(int number)
    +boolean isBefore(Position position)
    +boolean isValid(Position position)
}

class Piece {
    - Position position
    - boolean onFinishCell = false

    + Position getPosition()
    + void moveTo(Position positionDestination)
    + void setOnFinishCell()
}

package "Utils" {
    class InputHandler {
        + int getNumberPlayer() throws NumberOfPlayerException
        - int getInteger() throws NumberFormatException
        + String getPlayerName()
        + void getEnter()
    }

    class OutputHandler {
        + {static} void skipLine()
        + {static}  void welcoming()
        ...()
    }
}

class Cell implements CellEffect {
    -Position position
    -CellType getCellType()
    ^getCellType()
    ^applyEffect()
}

interface CellEffect {
    -getCellType()
    -applyEffect()
}

class MovingCell extends Cell  {
    - Position destinationPosition
    - CellType cellType
    ^getCellType()
    ^applyEffect()
}

class FinishCell extends Cell {
    - CellType cellType
    ^getCellType()
    ^applyEffect()
}

class Board {
    -Cell CELLS[]
    -getCell(Position position)
    -setUp(Piece [] peices)
}

class CellFactory {
    -HashMap<Integer,Integer> MOVING_CELLS
    -createCells(int boardDimension)
    -createFinishCell()
}

enum CellType {
    LADDER,
    SNAKE,
    NORMAL,
    FINISH
}

Board - -"build" CellFactory
Cell *- CellType



Game *- - Board
Board *- - Cell
Game *- - Player
Cell *- -Position
Piece ->"possede" Position
Player *- - Piece
Game - -> OutputHandler
Game *- - InputHandler
Player *- - InputHandler
@enduml

PlantUML version 1.2022.1beta6(Unknown compile time)
(GPL source distribution)
Java Runtime: Java(TM) SE Runtime Environment
JVM: Java HotSpot(TM) 64-Bit Server VM
Default Encoding: UTF-8
Language: en
Country: US
--></g></svg>