<?xml version="1.0" encoding="UTF-8" standalone="no"?><svg xmlns="http://www.w3.org/2000/svg" xmlns:xlink="http://www.w3.org/1999/xlink" contentScriptType="application/ecmascript" contentStyleType="text/css" height="758px" preserveAspectRatio="none" style="width:793px;height:758px;background:#FFFFFF;" version="1.1" viewBox="0 0 793 758" width="793px" zoomAndPan="magnify"><defs><filter height="300%" id="f1826106w5ade" width="300%" x="-1" y="-1"><feGaussianBlur result="blurOut" stdDeviation="2.0"/><feColorMatrix in="blurOut" result="blurOut2" type="matrix" values="0 0 0 0 0 0 0 0 0 0 0 0 0 0 0 0 0 0 .4 0"/><feOffset dx="4.0" dy="4.0" in="blurOut2" result="blurOut3"/><feBlend in="SourceGraphic" in2="blurOut3" mode="normal"/></filter></defs><g><text fill="#000000" font-family="sans-serif" font-size="18" lengthAdjust="spacing" textLength="212" x="288.25" y="28.708">Diagrame de sequence</text><rect fill="#FFFFFF" filter="url(#f1826106w5ade)" height="600.125" style="stroke:#A80036;stroke-width:1.0;" width="10" x="99" y="106.3828"/><rect fill="#FFFFFF" filter="url(#f1826106w5ade)" height="311.0625" style="stroke:#A80036;stroke-width:1.0;" width="10" x="104" y="185.6484"/><rect fill="#FFFFFF" filter="url(#f1826106w5ade)" height="239.7969" style="stroke:#A80036;stroke-width:1.0;" width="10" x="109" y="256.9141"/><rect fill="#FFFFFF" filter="url(#f1826106w5ade)" height="486.7266" style="stroke:#A80036;stroke-width:1.0;" width="10" x="278" y="219.7813"/><rect fill="#FFFFFF" filter="url(#f1826106w5ade)" height="415.4609" style="stroke:#A80036;stroke-width:1.0;" width="10" x="421" y="291.0469"/><rect fill="#FFFFFF" filter="url(#f1826106w5ade)" height="88.2656" style="stroke:#A80036;stroke-width:1.0;" width="10" x="510.5" y="320.1797"/><rect fill="#FFFFFF" filter="url(#f1826106w5ade)" height="59.1328" style="stroke:#A80036;stroke-width:1.0;" width="10" x="515.5" y="349.3125"/><rect fill="#FFFFFF" filter="url(#f1826106w5ade)" height="328.0625" style="stroke:#A80036;stroke-width:1.0;" width="10" x="625.5" y="378.4453"/><rect fill="#FFFFFF" filter="url(#f1826106w5ade)" height="268.9297" style="stroke:#A80036;stroke-width:1.0;" width="10" x="686.5" y="437.5781"/><rect fill="#FFFFFF" filter="url(#f1826106w5ade)" height="239.7969" style="stroke:#A80036;stroke-width:1.0;" width="10" x="753.5" y="466.7109"/><line style="stroke:#A80036;stroke-width:1.0;stroke-dasharray:5.0,5.0;" x1="104" x2="104" y1="75.25" y2="715.5078"/><line style="stroke:#A80036;stroke-width:1.0;stroke-dasharray:5.0,5.0;" x1="283" x2="283" y1="75.25" y2="715.5078"/><line style="stroke:#A80036;stroke-width:1.0;stroke-dasharray:5.0,5.0;" x1="426" x2="426" y1="75.25" y2="715.5078"/><line style="stroke:#A80036;stroke-width:1.0;stroke-dasharray:5.0,5.0;" x1="515" x2="515" y1="75.25" y2="715.5078"/><line style="stroke:#A80036;stroke-width:1.0;stroke-dasharray:5.0,5.0;" x1="630" x2="630" y1="75.25" y2="715.5078"/><line style="stroke:#A80036;stroke-width:1.0;stroke-dasharray:5.0,5.0;" x1="691" x2="691" y1="75.25" y2="715.5078"/><line style="stroke:#A80036;stroke-width:1.0;stroke-dasharray:5.0,5.0;" x1="758.5" x2="758.5" y1="75.25" y2="715.5078"/><rect fill="#FEFECE" filter="url(#f1826106w5ade)" height="30.2969" style="stroke:#A80036;stroke-width:1.5;" width="56" x="74" y="39.9531"/><text fill="#000000" font-family="sans-serif" font-size="14" lengthAdjust="spacing" textLength="42" x="81" y="59.9482">Game</text><rect fill="#FEFECE" filter="url(#f1826106w5ade)" height="30.2969" style="stroke:#A80036;stroke-width:1.5;" width="56" x="74" y="714.5078"/><text fill="#000000" font-family="sans-serif" font-size="14" lengthAdjust="spacing" textLength="42" x="81" y="734.5029">Game</text><rect fill="#FEFECE" filter="url(#f1826106w5ade)" height="30.2969" style="stroke:#A80036;stroke-width:1.5;" width="58" x="252" y="39.9531"/><text fill="#000000" font-family="sans-serif" font-size="14" lengthAdjust="spacing" textLength="44" x="259" y="59.9482">Player</text><rect fill="#FEFECE" filter="url(#f1826106w5ade)" height="30.2969" style="stroke:#A80036;stroke-width:1.5;" width="58" x="252" y="714.5078"/><text fill="#000000" font-family="sans-serif" font-size="14" lengthAdjust="spacing" textLength="44" x="259" y="734.5029">Player</text><rect fill="#FEFECE" filter="url(#f1826106w5ade)" height="30.2969" style="stroke:#A80036;stroke-width:1.5;" width="56" x="396" y="39.9531"/><text fill="#000000" font-family="sans-serif" font-size="14" lengthAdjust="spacing" textLength="42" x="403" y="59.9482">Board</text><rect fill="#FEFECE" filter="url(#f1826106w5ade)" height="30.2969" style="stroke:#A80036;stroke-width:1.5;" width="56" x="396" y="714.5078"/><text fill="#000000" font-family="sans-serif" font-size="14" lengthAdjust="spacing" textLength="42" x="403" y="734.5029">Board</text><rect fill="#FEFECE" filter="url(#f1826106w5ade)" height="30.2969" style="stroke:#A80036;stroke-width:1.5;" width="95" x="466" y="39.9531"/><text fill="#000000" font-family="sans-serif" font-size="14" lengthAdjust="spacing" textLength="81" x="473" y="59.9482">CellFactory</text><rect fill="#FEFECE" filter="url(#f1826106w5ade)" height="30.2969" style="stroke:#A80036;stroke-width:1.5;" width="95" x="466" y="714.5078"/><text fill="#000000" font-family="sans-serif" font-size="14" lengthAdjust="spacing" textLength="81" x="473" y="734.5029">CellFactory</text><rect fill="#FEFECE" filter="url(#f1826106w5ade)" height="30.2969" style="stroke:#A80036;stroke-width:1.5;" width="41" x="608" y="39.9531"/><text fill="#000000" font-family="sans-serif" font-size="14" lengthAdjust="spacing" textLength="27" x="615" y="59.9482">Cell</text><rect fill="#FEFECE" filter="url(#f1826106w5ade)" height="30.2969" style="stroke:#A80036;stroke-width:1.5;" width="41" x="608" y="714.5078"/><text fill="#000000" font-family="sans-serif" font-size="14" lengthAdjust="spacing" textLength="27" x="615" y="734.5029">Cell</text><rect fill="#FEFECE" filter="url(#f1826106w5ade)" height="30.2969" style="stroke:#A80036;stroke-width:1.5;" width="53" x="663" y="39.9531"/><text fill="#000000" font-family="sans-serif" font-size="14" lengthAdjust="spacing" textLength="39" x="670" y="59.9482">Piece</text><rect fill="#FEFECE" filter="url(#f1826106w5ade)" height="30.2969" style="stroke:#A80036;stroke-width:1.5;" width="53" x="663" y="714.5078"/><text fill="#000000" font-family="sans-serif" font-size="14" lengthAdjust="spacing" textLength="39" x="670" y="734.5029">Piece</text><rect fill="#FEFECE" filter="url(#f1826106w5ade)" height="30.2969" style="stroke:#A80036;stroke-width:1.5;" width="46" x="733.5" y="39.9531"/><text fill="#000000" font-family="sans-serif" font-size="14" lengthAdjust="spacing" textLength="32" x="740.5" y="59.9482">Dice</text><rect fill="#FEFECE" filter="url(#f1826106w5ade)" height="30.2969" style="stroke:#A80036;stroke-width:1.5;" width="46" x="733.5" y="714.5078"/><text fill="#000000" font-family="sans-serif" font-size="14" lengthAdjust="spacing" textLength="32" x="740.5" y="734.5029">Dice</text><rect fill="#FFFFFF" filter="url(#f1826106w5ade)" height="600.125" style="stroke:#A80036;stroke-width:1.0;" width="10" x="99" y="106.3828"/><rect fill="#FFFFFF" filter="url(#f1826106w5ade)" height="311.0625" style="stroke:#A80036;stroke-width:1.0;" width="10" x="104" y="185.6484"/><rect fill="#FFFFFF" filter="url(#f1826106w5ade)" height="239.7969" style="stroke:#A80036;stroke-width:1.0;" width="10" x="109" y="256.9141"/><rect fill="#FFFFFF" filter="url(#f1826106w5ade)" height="486.7266" style="stroke:#A80036;stroke-width:1.0;" width="10" x="278" y="219.7813"/><rect fill="#FFFFFF" filter="url(#f1826106w5ade)" height="415.4609" style="stroke:#A80036;stroke-width:1.0;" width="10" x="421" y="291.0469"/><rect fill="#FFFFFF" filter="url(#f1826106w5ade)" height="88.2656" style="stroke:#A80036;stroke-width:1.0;" width="10" x="510.5" y="320.1797"/><rect fill="#FFFFFF" filter="url(#f1826106w5ade)" height="59.1328" style="stroke:#A80036;stroke-width:1.0;" width="10" x="515.5" y="349.3125"/><rect fill="#FFFFFF" filter="url(#f1826106w5ade)" height="328.0625" style="stroke:#A80036;stroke-width:1.0;" width="10" x="625.5" y="378.4453"/><rect fill="#FFFFFF" filter="url(#f1826106w5ade)" height="268.9297" style="stroke:#A80036;stroke-width:1.0;" width="10" x="686.5" y="437.5781"/><rect fill="#FFFFFF" filter="url(#f1826106w5ade)" height="239.7969" style="stroke:#A80036;stroke-width:1.0;" width="10" x="753.5" y="466.7109"/><polygon fill="#A80036" points="87,102.3828,97,106.3828,87,110.3828,91,106.3828" style="stroke:#A80036;stroke-width:1.0;"/><line style="stroke:#A80036;stroke-width:1.0;" x1="0" x2="93" y1="106.3828" y2="106.3828"/><text fill="#000000" font-family="sans-serif" font-size="13" lengthAdjust="spacing" textLength="80" x="7" y="101.3169">new Game()</text><line style="stroke:#A80036;stroke-width:1.0;" x1="109" x2="151" y1="135.5156" y2="135.5156"/><line style="stroke:#A80036;stroke-width:1.0;" x1="151" x2="151" y1="135.5156" y2="148.5156"/><line style="stroke:#A80036;stroke-width:1.0;" x1="110" x2="151" y1="148.5156" y2="148.5156"/><polygon fill="#A80036" points="120,144.5156,110,148.5156,120,152.5156,116,148.5156" style="stroke:#A80036;stroke-width:1.0;"/><text fill="#000000" font-family="sans-serif" font-size="13" lengthAdjust="spacing" textLength="153" x="116" y="130.4497">setUpNumberOfPlayer()</text><line style="stroke:#A80036;stroke-width:1.0;" x1="109" x2="156" y1="172.6484" y2="172.6484"/><line style="stroke:#A80036;stroke-width:1.0;" x1="156" x2="156" y1="172.6484" y2="185.6484"/><line style="stroke:#A80036;stroke-width:1.0;" x1="115" x2="156" y1="185.6484" y2="185.6484"/><polygon fill="#A80036" points="125,181.6484,115,185.6484,125,189.6484,121,185.6484" style="stroke:#A80036;stroke-width:1.0;"/><text fill="#000000" font-family="sans-serif" font-size="13" lengthAdjust="spacing" textLength="29" x="121" y="167.5825">init()</text><polygon fill="#A80036" points="266,215.7813,276,219.7813,266,223.7813,270,219.7813" style="stroke:#A80036;stroke-width:1.0;"/><line style="stroke:#A80036;stroke-width:1.0;" x1="114" x2="272" y1="219.7813" y2="219.7813"/><text fill="#000000" font-family="sans-serif" font-size="13" lengthAdjust="spacing" textLength="98" x="121" y="214.7153">createPlayers()</text><line style="stroke:#A80036;stroke-width:1.0;" x1="114" x2="161" y1="243.9141" y2="243.9141"/><line style="stroke:#A80036;stroke-width:1.0;" x1="161" x2="161" y1="243.9141" y2="256.9141"/><line style="stroke:#A80036;stroke-width:1.0;" x1="120" x2="161" y1="256.9141" y2="256.9141"/><polygon fill="#A80036" points="130,252.9141,120,256.9141,130,260.9141,126,256.9141" style="stroke:#A80036;stroke-width:1.0;"/><text fill="#000000" font-family="sans-serif" font-size="13" lengthAdjust="spacing" textLength="99" x="126" y="238.8481">createObjects()</text><polygon fill="#A80036" points="409,287.0469,419,291.0469,409,295.0469,413,291.0469" style="stroke:#A80036;stroke-width:1.0;"/><line style="stroke:#A80036;stroke-width:1.0;" x1="119" x2="415" y1="291.0469" y2="291.0469"/><text fill="#000000" font-family="sans-serif" font-size="13" lengthAdjust="spacing" textLength="283" x="126" y="285.981">createBoard(Board.STANDARD_DIMENSION);</text><polygon fill="#A80036" points="498.5,316.1797,508.5,320.1797,498.5,324.1797,502.5,320.1797" style="stroke:#A80036;stroke-width:1.0;"/><line style="stroke:#A80036;stroke-width:1.0;" x1="431" x2="504.5" y1="320.1797" y2="320.1797"/><text fill="#000000" font-family="sans-serif" font-size="13" lengthAdjust="spacing" textLength="37" x="438" y="315.1138">new()</text><polygon fill="#A80036" points="503.5,345.3125,513.5,349.3125,503.5,353.3125,507.5,349.3125" style="stroke:#A80036;stroke-width:1.0;"/><line style="stroke:#A80036;stroke-width:1.0;" x1="431" x2="509.5" y1="349.3125" y2="349.3125"/><text fill="#000000" font-family="sans-serif" font-size="13" lengthAdjust="spacing" textLength="40" x="438" y="344.2466">build()</text><polygon fill="#A80036" points="613.5,374.4453,623.5,378.4453,613.5,382.4453,617.5,378.4453" style="stroke:#A80036;stroke-width:1.0;"/><line style="stroke:#A80036;stroke-width:1.0;" x1="525.5" x2="619.5" y1="378.4453" y2="378.4453"/><text fill="#000000" font-family="sans-serif" font-size="13" lengthAdjust="spacing" textLength="81" x="532.5" y="373.3794">createCells()</text><polygon fill="#A80036" points="674.5,433.5781,684.5,437.5781,674.5,441.5781,678.5,437.5781" style="stroke:#A80036;stroke-width:1.0;"/><line style="stroke:#A80036;stroke-width:1.0;" x1="119" x2="680.5" y1="437.5781" y2="437.5781"/><text fill="#000000" font-family="sans-serif" font-size="13" lengthAdjust="spacing" textLength="92" x="126" y="432.5122">createPeices()</text><polygon fill="#A80036" points="741.5,462.7109,751.5,466.7109,741.5,470.7109,745.5,466.7109" style="stroke:#A80036;stroke-width:1.0;"/><line style="stroke:#A80036;stroke-width:1.0;" x1="119" x2="747.5" y1="466.7109" y2="466.7109"/><text fill="#000000" font-family="sans-serif" font-size="13" lengthAdjust="spacing" textLength="79" x="126" y="461.645">createDice()</text><polygon fill="#A80036" points="266,521.8438,276,525.8438,266,529.8438,270,525.8438" style="stroke:#A80036;stroke-width:1.0;"/><line style="stroke:#A80036;stroke-width:1.0;" x1="109" x2="272" y1="525.8438" y2="525.8438"/><text fill="#000000" font-family="sans-serif" font-size="13" lengthAdjust="spacing" textLength="145" x="116" y="520.7778">assignPieceToPLayer()</text><polygon fill="#A80036" points="674.5,550.9766,684.5,554.9766,674.5,558.9766,678.5,554.9766" style="stroke:#A80036;stroke-width:1.0;"/><line style="stroke:#A80036;stroke-width:1.0;" x1="288" x2="680.5" y1="554.9766" y2="554.9766"/><text fill="#000000" font-family="sans-serif" font-size="13" lengthAdjust="spacing" textLength="85" x="295" y="549.9106">assingPiece()</text><polygon fill="#A80036" points="409,580.1094,419,584.1094,409,588.1094,413,584.1094" style="stroke:#A80036;stroke-width:1.0;"/><line style="stroke:#A80036;stroke-width:1.0;" x1="109" x2="415" y1="584.1094" y2="584.1094"/><text fill="#000000" font-family="sans-serif" font-size="13" lengthAdjust="spacing" textLength="46" x="116" y="579.0435">setup()</text><polygon fill="#A80036" points="674.5,609.2422,684.5,613.2422,674.5,617.2422,678.5,613.2422" style="stroke:#A80036;stroke-width:1.0;"/><line style="stroke:#A80036;stroke-width:1.0;" x1="431" x2="680.5" y1="613.2422" y2="613.2422"/><text fill="#000000" font-family="sans-serif" font-size="13" lengthAdjust="spacing" textLength="190" x="438" y="608.1763">positionPiecesToStartingCell()</text><line style="stroke:#A80036;stroke-width:1.0;" x1="696.5" x2="738.5" y1="642.375" y2="642.375"/><line style="stroke:#A80036;stroke-width:1.0;" x1="738.5" x2="738.5" y1="642.375" y2="655.375"/><line style="stroke:#A80036;stroke-width:1.0;" x1="697.5" x2="738.5" y1="655.375" y2="655.375"/><polygon fill="#A80036" points="707.5,651.375,697.5,655.375,707.5,659.375,703.5,655.375" style="stroke:#A80036;stroke-width:1.0;"/><text fill="#000000" font-family="sans-serif" font-size="13" lengthAdjust="spacing" textLength="43" x="703.5" y="637.3091">setCell</text><line style="stroke:#A80036;stroke-width:1.0;" x1="109" x2="151" y1="684.5078" y2="684.5078"/><line style="stroke:#A80036;stroke-width:1.0;" x1="151" x2="151" y1="684.5078" y2="697.5078"/><line style="stroke:#A80036;stroke-width:1.0;" x1="110" x2="151" y1="697.5078" y2="697.5078"/><polygon fill="#A80036" points="120,693.5078,110,697.5078,120,701.5078,116,697.5078" style="stroke:#A80036;stroke-width:1.0;"/><text fill="#000000" font-family="sans-serif" font-size="13" lengthAdjust="spacing" textLength="79" x="116" y="679.4419">startGame()</text><!--MD5=[749c0ab468c9dd6b62e519624386d451]
@startuml
Title Diagrame de sequence

[-> Game: new Game()
activate Game

Game -> Game : setUpNumberOfPlayer()
Game -> Game : init()
activate Game
Game -> Player : createPlayers()
    activate Player
Game -> Game : createObjects()
activate Game
Game -> Board : createBoard(Board.STANDARD_DIMENSION);
    activate Board
    Board -> CellFactory : new()
    activate CellFactory
    Board -> CellFactory : build()
        activate CellFactory
        CellFactory -> Cell : createCells()
            activate Cell
        deactivate CellFactory
    deactivate CellFactory
Game -> Piece : createPeices()
    activate Piece
Game -> Dice : createDice()
    activate Dice
deactivate Game
deactivate Game
Game -> Player : assignPieceToPLayer()
Player -> Piece : assingPiece()
Game -> Board : setup()
Board -> Piece : positionPiecesToStartingCell()
Piece -> Piece : setCell
Game -> Game : startGame()
@enduml

PlantUML version 1.2022.1beta6(Unknown compile time)
(GPL source distribution)
Java Runtime: Java(TM) SE Runtime Environment
JVM: Java HotSpot(TM) 64-Bit Server VM
Default Encoding: UTF-8
Language: en
Country: US
--></g></svg>